<?xml version="1.0"?>
<svg xmlns="http://www.w3.org/2000/svg" xmlns:xlink="http://www.w3.org/1999/xlink" xmlns:svgjs="http://svgjs.com/svgjs" version="1.1" width="60" height="60" x="0" y="0" viewBox="0 0 512 512" style="enable-background:new 0 0 512 512" xml:space="preserve" class=""><g><g xmlns="http://www.w3.org/2000/svg"><path d="m69.327 309.252c3.651.313 6.357-1.962 8.12-6.823 9.847-113.445 129.462-190.472 236.588-153.45 3.914 1.351 8.185-.724 9.539-4.64 1.353-3.915-.724-8.185-4.639-9.538-13.059-4.513-26.533-7.585-40.26-9.209v-17.403h8.032c4.142 0 7.5-3.357 7.5-7.5v-24.286c18.993-4.785 29.346-17.4 31.058-37.843 0-21.262-17.298-38.56-38.56-38.56h-62.12c-23.498 2.208-36.351 15.062-38.56 38.56 0 18.7 13.375 34.329 31.058 37.832v24.297c0 4.143 3.358 7.5 7.5 7.5h8.032v17.406c-89.918 10.68-162.298 85.498-170.112 175.537-.358 4.127 2.697 7.762 6.824 8.12zm131.698-270.692c1.351-14.356 9.204-22.209 23.56-23.56h62.12c12.991 0 23.56 10.568 23.56 23.56-.924 11.66-6.589 19.207-16.996 22.642-3.855-17.223-19.255-30.137-37.624-30.137-18.366 0-33.764 12.91-37.622 30.128-9.807-2.851-16.998-11.915-16.998-22.633zm31.058 31.108c0-.013.002-.025.002-.039 0-.009-.001-.018-.001-.027.013-12.981 10.577-23.538 23.561-23.538s23.549 10.557 23.561 23.538c0 .009-.001.018-.001.027 0 .013.002.026.002.039v23.52h-47.124zm15.532 38.522h16.06v16.204c-5.353-.222-10.707-.218-16.06.01z" fill="#f0997a" data-original="#000000" style="" class=""/><path d="m397.917 186.461 11.477-11.481 5.68 5.68c3.535 2.928 7.071 2.928 10.606 0l10.983-10.983c8.979-8.979 8.979-23.59 0-32.57-10.857-8.993-21.714-8.993-32.571 0l-10.982 10.981c-2.929 3.536-2.929 7.072 0 10.607l5.677 5.677-11.457 11.461c-11.173-10.358-23.648-19.489-37.278-27.102-3.617-2.021-8.186-.727-10.205 2.891-2.02 3.616-.726 8.186 2.891 10.205 56.616 31.622 91.787 91.506 91.787 156.282 0 98.64-80.245 178.89-178.88 178.89-91.973 0-170.247-71.677-178.198-163.18-.358-4.128-3.994-7.177-8.121-6.822-4.126.358-7.181 3.994-6.822 8.121 8.587 98.833 94.001 176.882 193.141 176.882 106.906 0 193.88-86.979 193.88-193.89 0-49.478-18.952-96.305-51.608-131.649zm16.782-38.748c3.786-3.135 7.571-3.135 11.357 0 3.131 3.132 3.131 8.227 0 11.357l-5.679 5.68c-3.794-3.796-7.561-7.564-11.357-11.358z" fill="#f0997a" data-original="#000000" style="" class=""/><path d="m202.599 464.247c-1.222 3.958.996 8.157 4.953 9.379 101.495 31.344 210.607-47.138 210.891-154.636.269-101.553-81.833-163.681-162.759-163.681-88.518 0-162.78 74.633-162.78 162.78 0 57.779 32.788 113.697 83.156 141.998 3.613 2.031 8.185.747 10.212-2.864 2.029-3.611.747-8.184-2.865-10.212-9.733-5.469-18.684-11.965-26.773-19.288l16.531-16.532c2.929-2.93 2.929-7.678 0-10.607-2.929-2.928-7.678-2.928-10.606 0l-16.523 16.523c-22.526-24.985-36.185-57.251-37.923-91.563h23.397c4.142 0 7.5-3.357 7.5-7.5s-3.358-7.5-7.5-7.5h-23.416c1.774-35.113 15.863-67.031 38.022-91.516l16.501 16.501c3.535 2.928 7.071 2.928 10.606 0 2.929-2.93 2.929-7.678 0-10.607l-16.495-16.495c24.5-22.13 56.422-36.188 91.534-37.933v23.38c0 4.143 3.358 7.5 7.5 7.5s7.5-3.357 7.5-7.5v-23.374c35.096 1.782 66.999 15.869 91.475 38.02l-16.406 16.406c-2.929 2.93-2.929 7.678 0 10.607 3.535 2.928 7.071 2.928 10.606 0l16.4-16.4c22.119 24.49 36.175 56.397 37.929 91.492h-23.256c-4.142 0-7.5 3.357-7.5 7.5s3.358 7.5 7.5 7.5h23.255c-1.772 35.092-15.845 66.992-37.98 91.471l-16.403-16.403c-2.929-2.928-7.678-2.928-10.606 0-2.929 2.93-2.929 7.678 0 10.607l16.402 16.402c-24.487 22.135-56.395 36.204-91.495 37.967v-23.298c0-4.143-3.358-7.5-7.5-7.5s-7.5 3.357-7.5 7.5v23.276c-12.322-.617-24.47-2.732-36.205-6.355-3.961-1.222-8.157.997-9.379 4.955z" fill="#f0997a" data-original="#000000" style="" class=""/><path d="m255.764 217.438c-4.142 0-7.5 3.357-7.5 7.5v63.319c-13.368 3.358-23.296 15.474-23.296 29.868 0 16.981 13.815 30.797 30.796 30.797s30.797-13.815 30.797-30.797c0-14.394-9.929-26.51-23.297-29.868v-63.318c0-4.144-3.358-7.501-7.5-7.501zm15.797 100.686c0 8.71-7.086 15.797-15.797 15.797-8.71 0-15.796-7.087-15.796-15.797s7.086-15.796 15.796-15.796 15.797 7.086 15.797 15.796z" fill="#f0997a" data-original="#000000" style="" class=""/></g></g></svg>
