<?xml version="1.0"?>
<svg xmlns="http://www.w3.org/2000/svg" xmlns:xlink="http://www.w3.org/1999/xlink" xmlns:svgjs="http://svgjs.com/svgjs" version="1.1" idth="60" height="60" x="0" y="0" viewBox="0 0 512 512" style="enable-background:new 0 0 512 512" xml:space="preserve" class=""><g><g xmlns="http://www.w3.org/2000/svg"><g><path d="m478.646 432.022-49.171-72.654c-10.695-16.359-8.288-37.842-5.961-58.62.649-5.798 1.321-11.793 1.671-17.501 1.675-27.289-5.218-56.644-21.072-89.746-6.027-12.582-13.576-25.783-23.077-40.357-13.669-20.967-29.067-41.03-43.958-60.431-2.926-3.812-5.851-7.624-8.766-11.443-6.956-9.118-19.497-11.729-29.17-6.069-5.61 3.279-9.308 8.6-10.58 14.539-3.762-.511-7.634-.022-11.214 1.482-9.929 4.171-15.258 15.143-12.398 25.521 1.334 4.838 3.217 11.009 5.395 18.154 12.15 39.841 34.508 113.204 30.209 177.71-3.723 35.795 1.988 70.847 17.003 99.621 3.984 7.635 8.422 15.008 12.27 21.32 2.161 3.544 6.784 4.665 10.326 2.505 3.543-2.16 4.665-6.783 2.505-10.326-3.722-6.106-8.008-13.225-11.779-20.451-10.417-19.962-16.058-43.992-16.315-69.493-.24-23.845 4.13-48.462 12.638-71.19 2.152-5.748 12.669-49.891 12.669-49.891 1.259-5.32 5.956-9.036 11.423-9.036 5.544 0 10.373 3.91 11.483 9.298 3.352 16.274 7.227 52.378-4.428 111.407-.35 1.355-1.854 7.45-2.652 14.977-1.263 11.908-.167 21.419 3.259 28.27 1.317 2.633 3.97 4.155 6.726 4.155 1.129 0 2.276-.256 3.355-.795 3.711-1.856 5.215-6.369 3.359-10.08-3.919-7.838-1.751-24.339.535-32.891.044-.163.082-.329.115-.495 11.609-58.662 8.827-96.318 4.448-117.578-2.542-12.337-13.561-21.293-26.201-21.293-6.335 0-12.211 2.197-16.843 5.947-.879-6.344-2.169-12.603-3.925-18.68-4.801-16.615-26.44-79.318-27.056-81.226-1.063-3.268.275-6.766 3.257-8.508 3.086-1.804 7.318-.831 9.638 2.211 2.923 3.831 5.857 7.654 8.792 11.478 14.718 19.177 29.938 39.006 43.291 59.489 9.139 14.017 16.372 26.657 22.112 38.642 14.72 30.733 21.14 57.665 19.626 82.333-.327 5.331-.948 10.877-1.605 16.749-2.502 22.348-5.34 47.679 8.356 68.573.021.031.041.062.062.093l49.204 72.704c.227.335.22.665.175.883-.046.219-.171.524-.513.742l-86.105 54.72c-.372.237-.726.202-.961.13-.233-.071-.547-.242-.722-.646l-13.297-30.622c-1.292-2.979-2.694-5.957-4.284-9.104-1.87-3.704-6.391-5.19-10.094-3.318-3.704 1.87-5.189 6.39-3.318 10.094 1.457 2.884 2.736 5.603 3.912 8.313l13.298 30.623c1.887 4.348 5.569 7.638 10.101 9.027 1.557.477 3.157.713 4.749.713 3.041 0 6.051-.859 8.676-2.527l86.105-54.72c3.723-2.366 6.268-6.048 7.165-10.368.898-4.32.031-8.711-2.443-12.364zm-162.555-249.944c6.988 24.186 6.135 51.471-2.257 75.234-5.585-49.599-20.096-97.223-29.115-126.798-2.147-7.042-4.001-13.123-5.282-17.766-.86-3.119.744-6.418 3.732-7.673 2.366-.997 4.38-.325 5.369.164.776.384 2.017 1.21 2.831 2.744 2.557 7.692 8.471 24.711 8.75 25.511 5.547 15.91 11.284 32.36 15.972 48.584z" fill="#f0997a" data-original="#000000" style=""/><path d="m234.652 91.221c-3.582-1.504-7.454-1.993-11.217-1.482-1.271-5.941-4.969-11.261-10.577-14.539-9.676-5.658-22.216-3.047-29.171 6.069-2.911 3.816-5.835 7.625-8.758 11.433-9.845 12.826-20.024 26.089-29.624 39.509-2.413 3.375-1.635 8.068 1.74 10.482 3.375 2.413 8.067 1.636 10.482-1.74 9.451-13.215 19.552-26.375 29.321-39.102 2.932-3.82 5.864-7.64 8.784-11.469 2.321-3.043 6.557-4.015 9.639-2.211 2.981 1.742 4.319 5.241 3.25 8.526-3.445 10.671-7.141 21.274-10.831 31.848-7.751 22.215-16.913 44.737-20.143 68.037-4.631-3.746-10.507-5.943-16.843-5.943-12.64 0-23.659 8.955-26.201 21.293-2.217 10.761-3.331 22.429-3.669 33.661-.374 12.414.142 24.849 1.258 37.215.684 7.572 1.597 15.123 2.7 22.645 1.906 12.999 5.593 26.038 6.716 39.094.509 5.922.831 12.874-1.906 18.349-1.856 3.712-.351 8.225 3.359 10.08 1.079.54 2.226.795 3.355.795 2.756-.001 5.41-1.522 6.726-4.155 2.716-5.433 3.601-11.649 3.751-17.662.28-11.199-2.504-21.774-4.488-32.656-.511-2.803-.997-5.61-1.456-8.422-2.37-14.507-4.053-29.141-4.728-43.828-.487-10.6-.456-21.239.361-31.822.525-6.796 1.362-13.584 2.738-20.263 1.11-5.388 5.939-9.299 11.483-9.299 5.467 0 10.164 3.716 11.414 8.998 3.883 16.796 6.604 33.702 12.678 49.929 8.507 22.728 12.877 47.345 12.638 71.19-.257 25.501-5.898 49.531-16.315 69.493-4.244 8.134-9.174 16.197-13.943 23.994-7.054 11.537-14.351 23.467-19.958 36.382l-13.296 30.623c-.176.404-.49.574-.723.646-.235.069-.589.106-.961-.13l-86.105-54.72c-.341-.217-.467-.522-.513-.742-.045-.218-.052-.549.175-.883l49.204-72.704c.021-.031.041-.062.062-.093 13.695-20.893 10.858-46.224 8.356-68.573-.657-5.873-1.279-11.419-1.605-16.75-1.514-24.668 4.905-51.599 19.627-82.333 4.577-9.559 10.017-19.382 16.627-30.03 2.188-3.526 1.104-8.158-2.42-10.346-3.525-2.188-8.159-1.105-10.346 2.42-6.901 11.116-12.598 21.409-17.413 31.465-15.855 33.102-22.748 62.457-21.073 89.745.35 5.708 1.022 11.703 1.671 17.502 2.327 20.778 4.734 42.261-5.961 58.62l-49.171 72.654c-2.473 3.653-3.341 8.044-2.443 12.363.897 4.32 3.442 8.001 7.165 10.368l86.105 54.72c2.625 1.668 5.635 2.527 8.676 2.527 1.592 0 3.192-.236 4.749-.713 4.531-1.389 8.214-4.679 10.102-9.027l13.297-30.623c5.19-11.954 11.895-22.919 18.994-34.528 4.899-8.011 9.966-16.295 14.446-24.881 15.015-28.774 20.726-63.826 17.003-99.621-4.299-64.506 18.059-137.869 30.209-177.71 2.179-7.145 4.061-13.317 5.395-18.155 2.86-10.376-2.47-21.347-12.398-25.52zm-2.089 21.527c-1.281 4.644-3.134 10.725-5.282 17.767-9.019 29.575-23.53 77.199-29.115 126.798-8.392-23.763-9.245-51.048-2.257-75.234 4.688-16.224 16.533-50.199 16.814-51.003.003-.009.007-.017.01-.025 0 0 5.342-15.379 7.898-23.066.814-1.534 2.055-2.36 2.831-2.744.989-.489 3.002-1.158 5.369-.165 2.987 1.255 4.592 4.554 3.732 7.672z" fill="#f0997a" data-original="#000000" style=""/><path d="m256 0c-4.15 0-7.513 3.363-7.513 7.513v23.9c0 4.15 3.363 7.513 7.513 7.513s7.513-3.363 7.513-7.513v-23.9c0-4.15-3.363-7.513-7.513-7.513z" fill="#f0997a" data-original="#000000" style=""/><path d="m143.301 64.606c1.467 1.466 3.391 2.2 5.313 2.2s3.846-.734 5.313-2.2c2.934-2.935 2.934-7.691 0-10.626l-16.9-16.9c-2.935-2.933-7.691-2.933-10.626 0-2.934 2.935-2.934 7.691 0 10.626z" fill="#f0997a" data-original="#000000" style=""/><path d="m96.836 134.11h23.9c4.15 0 7.513-3.363 7.513-7.513s-3.363-7.513-7.513-7.513h-23.9c-4.15 0-7.513 3.363-7.513 7.513s3.363 7.513 7.513 7.513z" fill="#f0997a" data-original="#000000" style=""/><path d="m383.751 126.596c0 4.15 3.363 7.513 7.513 7.513h23.9c4.15 0 7.513-3.363 7.513-7.513s-3.363-7.513-7.513-7.513h-23.9c-4.15 0-7.513 3.363-7.513 7.513z" fill="#f0997a" data-original="#000000" style=""/><path d="m363.386 66.806c1.922 0 3.846-.734 5.313-2.2l16.9-16.9c2.934-2.935 2.934-7.691 0-10.626-2.935-2.933-7.691-2.933-10.626 0l-16.9 16.9c-2.934 2.935-2.934 7.691 0 10.626 1.467 1.466 3.39 2.2 5.313 2.2z" fill="#f0997a" data-original="#000000" style=""/></g></g></g></svg>
